<?xml version="1.0" encoding="utf-8"?>
<!-- Generator: Adobe Illustrator 16.0.0, SVG Export Plug-In . SVG Version: 6.00 Build 0)  -->
<!DOCTYPE svg PUBLIC "-//W3C//DTD SVG 1.1//EN" "http://www.w3.org/Graphics/SVG/1.1/DTD/svg11.dtd">
<svg version="1.1" id="Layer_1" xmlns="http://www.w3.org/2000/svg" xmlns:xlink="http://www.w3.org/1999/xlink" x="0px" y="0px"
	 width="90px" height="90px" viewBox="0 0 90 90" enable-background="new 0 0 90 90" xml:space="preserve">
<g>
	<circle fill="#FFFFFF" cx="45" cy="45" r="45"/>
	<g>
		<g>
			<line fill="#4C4C4D" x1="51.837" y1="22.763" x2="29.608" y2="44.991"/>
			<path fill="#4C4C4D" d="M28.462,46.138c-0.634-0.633-0.634-1.66,0-2.293l22.228-22.229c0.634-0.633,1.66-0.633,2.293,0
				c0.634,0.634,0.634,1.66,0,2.293L30.755,46.138C30.123,46.771,29.096,46.771,28.462,46.138z"/>
		</g>
		<g>
			<line fill="#4C4C4D" x1="29.608" y1="45.009" x2="51.837" y2="67.236"/>
			<path fill="#4C4C4D" d="M52.982,68.385c0.634-0.635,0.634-1.66,0-2.293L30.755,43.863c-0.633-0.633-1.66-0.633-2.293,0
				c-0.633,0.633-0.633,1.66,0,2.293l22.228,22.229C51.323,69.016,52.35,69.016,52.982,68.385z"/>
		</g>
	</g>
</g>
</svg>
