<?xml version="1.0" encoding="utf-8"?>
<!-- Generator: Adobe Illustrator 16.0.0, SVG Export Plug-In . SVG Version: 6.00 Build 0)  -->
<!DOCTYPE svg PUBLIC "-//W3C//DTD SVG 1.1//EN" "http://www.w3.org/Graphics/SVG/1.1/DTD/svg11.dtd">
<svg version="1.1" id="Layer_1" xmlns="http://www.w3.org/2000/svg" xmlns:xlink="http://www.w3.org/1999/xlink" x="0px" y="0px"
	 width="90px" height="90px" viewBox="0 0 90 90" enable-background="new 0 0 90 90" xml:space="preserve">
<g>
	<circle fill="#FFFFFF" cx="45" cy="45" r="45"/>
	<g>
		<g>
			<line fill="#4C4C4D" x1="38.163" y1="67.237" x2="60.393" y2="45.009"/>
			<path fill="#4C4C4D" d="M61.538,43.862c0.634,0.633,0.634,1.66,0,2.293L39.311,68.384c-0.634,0.633-1.66,0.634-2.293,0
				c-0.634-0.634-0.634-1.66,0-2.293l22.227-22.229C59.877,43.229,60.904,43.229,61.538,43.862z"/>
		</g>
		<g>
			<line fill="#4C4C4D" x1="60.393" y1="44.991" x2="38.163" y2="22.764"/>
			<path fill="#4C4C4D" d="M37.018,21.615c-0.634,0.635-0.634,1.66,0,2.293l22.227,22.229c0.633,0.633,1.66,0.634,2.294,0
				c0.634-0.633,0.634-1.66,0-2.293L39.311,21.615C38.677,20.984,37.65,20.984,37.018,21.615z"/>
		</g>
	</g>
</g>
</svg>
