<?xml version="1.0" encoding="utf-8"?>
<!-- Generator: Adobe Illustrator 16.0.0, SVG Export Plug-In . SVG Version: 6.00 Build 0)  -->
<!DOCTYPE svg PUBLIC "-//W3C//DTD SVG 1.1//EN" "http://www.w3.org/Graphics/SVG/1.1/DTD/svg11.dtd">
<svg version="1.1" id="Layer_1" xmlns="http://www.w3.org/2000/svg" xmlns:xlink="http://www.w3.org/1999/xlink" x="0px" y="0px"
	 width="32px" height="32px" viewBox="186.5 -1821.5 32 32" enable-background="new 186.5 -1821.5 32 32" xml:space="preserve">
<g>
	<path d="M202.5-1819.767c-8.538,0-15.46,5.458-15.46,12.19c0,4.352,2.894,8.171,7.247,10.328c-0.237,0.816-1.522,5.254-1.574,5.602
		c0,0-0.03,0.262,0.139,0.362c0.169,0.1,0.37,0.022,0.37,0.022c0.486-0.068,5.64-3.688,6.532-4.317
		c0.891,0.127,1.809,0.192,2.746,0.192c8.538,0,15.46-5.457,15.46-12.189S211.038-1819.767,202.5-1819.767z M194.844-1804.173
		c0,0.47-0.4,0.852-0.892,0.852s-0.892-0.382-0.892-0.852v-5.299h-1.392c-0.483,0-0.875-0.392-0.875-0.873s0.393-0.874,0.875-0.874
		h4.567c0.483,0,0.875,0.393,0.875,0.874s-0.393,0.873-0.875,0.873h-1.392V-1804.173z M202.34-1803.456
		c-0.177,0.082-0.371,0.123-0.567,0.123l0,0l0,0l0,0c-0.372,0-0.656-0.15-0.742-0.395l-0.442-1.155h-2.72l-0.441,1.156
		c-0.086,0.243-0.37,0.394-0.742,0.394c-0.196,0-0.389-0.041-0.566-0.123c-0.247-0.113-0.482-0.426-0.212-1.267l2.134-5.615
		c0.149-0.428,0.606-0.867,1.187-0.881c0.583,0.014,1.04,0.453,1.19,0.881l2.132,5.613
		C202.823-1803.881,202.586-1803.569,202.34-1803.456z M206.848-1803.451h-2.861c-0.472,0-0.855-0.367-0.855-0.818v-6.057
		c0-0.492,0.409-0.893,0.911-0.893s0.911,0.4,0.911,0.893v5.239h1.896c0.471,0,0.854,0.367,0.854,0.817
		C207.703-1803.818,207.32-1803.451,206.848-1803.451z M213.83-1804.123c-0.032,0.234-0.156,0.446-0.346,0.589
		c-0.154,0.116-0.343,0.181-0.536,0.18c-0.28,0.001-0.545-0.131-0.713-0.354l-2.092-2.771l-0.309,0.309v1.946
		c-0.001,0.492-0.4,0.892-0.893,0.893c-0.492,0-0.892-0.4-0.892-0.892v-6.102c0-0.492,0.4-0.893,0.892-0.893
		c0.491,0,0.892,0.4,0.892,0.893v1.916l2.489-2.487c0.128-0.128,0.304-0.199,0.495-0.199c0.223,0,0.446,0.097,0.614,0.264
		c0.157,0.155,0.25,0.357,0.262,0.565c0.013,0.211-0.057,0.403-0.197,0.543l-2.032,2.032l2.195,2.908
		C213.802-1804.595,213.864-1804.357,213.83-1804.123z"/>
	<polygon points="198.339,-1806.463 200.121,-1806.463 199.229,-1808.994 	"/>
</g>
</svg>
