<?xml version="1.0" encoding="utf-8"?>
<!-- Generator: Adobe Illustrator 16.0.0, SVG Export Plug-In . SVG Version: 6.00 Build 0)  -->
<!DOCTYPE svg PUBLIC "-//W3C//DTD SVG 1.1//EN" "http://www.w3.org/Graphics/SVG/1.1/DTD/svg11.dtd">
<svg version="1.1" id="Layer_1" xmlns="http://www.w3.org/2000/svg" xmlns:xlink="http://www.w3.org/1999/xlink" x="0px" y="0px"
	 width="103.417px" height="70px" viewBox="271.084 -1835.583 103.417 70" enable-background="new 271.084 -1835.583 103.417 70"
	 xml:space="preserve">
<g>
	<path fill="#653B6B" d="M310.547-1814.535c-1.598-3.351-3.875-6.35-6.766-8.913c-2.851-2.528-6.161-4.509-9.838-5.888
		c-3.779-1.417-7.787-2.136-11.913-2.136c-1.669,0-3.022,1.44-3.022,3.216c0,0,0,16.027,0,21.369c0,5.436,0,21.743,0,21.743
		c0,1.776,1.353,3.216,3.022,3.216s3.023-1.44,3.023-3.216v-6.525c0,0,0-11.559,0-15.411c0-4.451,0-17.802,0-17.802
		c12.365,1.295,21.978,10.432,21.978,21.475s-9.613,20.179-21.978,21.475c0,0-2.825,0.776-2.825,3.229
		c0,1.721,1.25,3.127,2.825,3.219v0.011c0.028-0.002,0.057-0.005,0.085-0.008c0.026,0,0.053,0.002,0.079,0.002
		c0.219,0,0.432-0.026,0.637-0.074c2.781-0.307,5.489-0.95,8.089-1.925c3.677-1.379,6.987-3.36,9.838-5.888
		c2.891-2.563,5.167-5.563,6.766-8.914c1.679-3.519,2.53-7.262,2.53-11.127S312.226-1811.016,310.547-1814.535z"/>
	<g>
		<path fill="#653B6B" d="M334.208-1779.481c-0.483,0-0.966-0.016-1.448-0.046c-11.641-0.74-19.021-10.115-19.33-10.514l6.273-4.853
			l-0.01-0.013c0.055,0.07,5.593,6.992,13.633,7.469c5.388,0.32,10.918-2.316,16.436-7.833c1.548-1.548,4.059-1.548,5.608,0
			c1.549,1.549,1.549,4.06,0,5.608c-3.771,3.771-7.701,6.532-11.679,8.206C340.568-1780.145,337.385-1779.481,334.208-1779.481z"/>
	</g>
	<path fill="#653B6B" d="M322.761-1811.075l-0.023,0.004c-0.452-1.359-1.99-2.359-3.818-2.359c-2.183,0-3.953,1.426-3.953,3.185
		c0,0.206,0.025,0.408,0.072,0.604l-0.006,0.001l-0.003-0.013c0.01,0.037,1.01,3.771,0.168,9.304
		c-1.121,7.367-4.806,14.285-10.951,20.564c-1.356,1.386-1.062,3.395,0.658,4.487c0.728,0.462,1.593,0.687,2.453,0.687
		c1.172,0,2.334-0.417,3.116-1.217c3.925-4.01,7.018-8.338,9.193-12.864c1.748-3.637,2.909-7.407,3.451-11.206
		C324.052-1806.447,322.814-1810.89,322.761-1811.075z"/>
	<path fill="#653B6B" d="M365.715-1782.477c-6.146-6.562-9.83-13.792-10.951-21.49c-0.842-5.782,0.158-9.684,0.168-9.722
		l-0.003,0.013l-0.021-0.004c0.048-0.208,0.074-0.422,0.074-0.641c0-1.838-1.77-3.328-3.953-3.328c-1.833,0-3.374,1.05-3.821,2.475
		l-0.007-0.001c-0.053,0.194-1.291,4.837-0.356,11.68c0.542,3.97,1.704,7.91,3.451,11.71c2.175,4.73,5.268,9.253,9.192,13.443
		c0.783,0.836,1.944,1.272,3.117,1.272c0.859,0,1.726-0.234,2.453-0.717C366.777-1778.929,367.072-1781.028,365.715-1782.477z"/>
</g>
</svg>
